# Blender v3.0.0 OBJ File: ''
# www.blender.org
mtllib pot.mtl
o Cylinder
v 0.000000 0.027997 -1.000000
v 0.000000 0.089839 -0.916027
v 0.000000 2.027997 -1.000000
v 0.195090 0.027997 -0.980785
v 0.178592 0.089839 -0.898438
v 0.195090 2.027997 -0.980785
v 0.382683 0.027997 -0.923880
v 0.350320 0.089839 -0.846344
v 0.382683 2.027997 -0.923880
v 0.555570 0.027997 -0.831470
v 0.508586 0.089839 -0.761750
v 0.555570 2.027997 -0.831470
v 0.707107 0.027997 -0.707107
v 0.647307 0.089839 -0.647904
v 0.707107 2.027997 -0.707107
v 0.831470 0.027997 -0.555570
v 0.761153 0.089839 -0.509183
v 0.831470 2.027997 -0.555570
v 0.923880 0.027997 -0.382683
v 0.845748 0.089839 -0.350917
v 0.923880 2.027997 -0.382683
v 0.980785 0.027997 -0.195090
v 0.897841 0.089839 -0.179188
v 0.980785 2.027997 -0.195090
v 1.000000 0.027997 0.000000
v 0.915431 0.089839 -0.000596
v 1.000000 2.027997 0.000000
v 0.980785 0.027997 0.195090
v 0.897841 0.089839 0.177995
v 0.980785 2.027997 0.195090
v 0.845748 0.089839 0.349724
v 0.923880 0.027997 0.382683
v 0.923880 2.027997 0.382683
v 0.831470 0.027997 0.555570
v 0.761153 0.089839 0.507990
v 0.831470 2.027997 0.555570
v 0.707107 0.027997 0.707107
v 0.647307 0.089839 0.646711
v 0.707107 2.027997 0.707107
v 0.555570 0.027997 0.831470
v 0.508586 0.089839 0.760557
v 0.555570 2.027997 0.831470
v 0.382683 0.027997 0.923880
v 0.350320 0.089839 0.845151
v 0.382683 2.027997 0.923880
v 0.178592 0.089839 0.897245
v 0.195090 0.027997 0.980785
v 0.195090 2.027997 0.980785
v -0.000000 0.027997 1.000000
v -0.000000 0.089839 0.914834
v -0.000000 2.027997 1.000000
v -0.195090 0.027997 0.980785
v -0.178592 0.089839 0.897245
v -0.195090 2.027997 0.980785
v -0.382683 0.027997 0.923880
v -0.350320 0.089839 0.845151
v -0.382683 2.027997 0.923880
v -0.555570 0.027997 0.831470
v -0.508586 0.089839 0.760556
v -0.555570 2.027997 0.831470
v -0.707107 0.027997 0.707107
v -0.647307 0.089839 0.646711
v -0.707107 2.027997 0.707107
v -0.831469 0.027997 0.555570
v -0.761153 0.089839 0.507990
v -0.831469 2.027997 0.555570
v -0.923880 0.027997 0.382684
v -0.845748 0.089839 0.349724
v -0.923880 2.027997 0.382684
v -0.980785 0.027997 0.195090
v -0.897841 0.089839 0.177995
v -0.980785 2.027997 0.195090
v -1.000000 0.027997 -0.000000
v -0.915431 0.089839 -0.000597
v -1.000000 2.027997 -0.000000
v -0.980785 0.027997 -0.195090
v -0.897841 0.089839 -0.179188
v -0.980785 2.027997 -0.195090
v -0.923879 0.027997 -0.382684
v -0.845748 0.089839 -0.350917
v -0.923879 2.027997 -0.382684
v -0.831470 0.027997 -0.555570
v -0.761153 0.089839 -0.509183
v -0.831470 2.027997 -0.555570
v -0.707107 0.027997 -0.707107
v -0.647308 0.089839 -0.647904
v -0.707107 2.027997 -0.707107
v -0.555570 0.027997 -0.831470
v -0.508586 0.089839 -0.761750
v -0.555570 2.027997 -0.831470
v -0.382683 0.027997 -0.923880
v -0.350320 0.089839 -0.846344
v -0.382683 2.027997 -0.923880
v -0.195090 0.027997 -0.980785
v -0.178592 0.089839 -0.898438
v -0.195090 2.027997 -0.980785
v 0.845748 2.027997 0.349724
v -0.647308 2.027997 -0.647904
v 0.761153 2.027997 0.507990
v 0.647307 2.027997 0.646711
v -0.508586 2.027997 -0.761750
v 0.508586 2.027997 0.760557
v -0.761153 2.027997 -0.509183
v -0.350320 2.027997 -0.846344
v -0.178592 2.027997 -0.898438
v 0.178592 2.027997 -0.898438
v 0.000000 2.027997 -0.916027
v 0.350320 2.027997 0.845151
v 0.178592 2.027997 0.897245
v -0.915431 2.027997 -0.000597
v -0.897841 2.027997 -0.179188
v -0.897841 2.027997 0.177995
v -0.761153 2.027997 0.507990
v -0.000000 2.027997 0.914834
v -0.508586 2.027997 0.760556
v -0.647307 2.027997 0.646711
v -0.845748 2.027997 0.349724
v -0.178592 2.027997 0.897245
v -0.350320 2.027997 0.845151
v 0.508586 2.027997 -0.761750
v 0.761153 2.027997 -0.509183
v 0.647307 2.027997 -0.647904
v 0.915431 2.027997 -0.000596
v 0.897841 2.027997 0.177995
v 0.897841 2.027997 -0.179188
v 0.845748 2.027997 -0.350917
v -0.845748 2.027997 -0.350917
v 0.350320 2.027997 -0.846344
vt 1.000000 0.500000
vt 1.000000 1.000000
vt 0.968750 1.000000
vt 0.968750 0.500000
vt 0.937500 1.000000
vt 0.937500 0.500000
vt 0.906250 1.000000
vt 0.906250 0.500000
vt 0.875000 1.000000
vt 0.875000 0.500000
vt 0.843750 1.000000
vt 0.843750 0.500000
vt 0.812500 1.000000
vt 0.812500 0.500000
vt 0.781250 1.000000
vt 0.781250 0.500000
vt 0.750000 1.000000
vt 0.750000 0.500000
vt 0.718750 1.000000
vt 0.718750 0.500000
vt 0.687500 1.000000
vt 0.687500 0.500000
vt 0.656250 1.000000
vt 0.656250 0.500000
vt 0.625000 1.000000
vt 0.625000 0.500000
vt 0.593750 1.000000
vt 0.593750 0.500000
vt 0.562500 1.000000
vt 0.562500 0.500000
vt 0.531250 1.000000
vt 0.531250 0.500000
vt 0.500000 1.000000
vt 0.500000 0.500000
vt 0.468750 1.000000
vt 0.468750 0.500000
vt 0.437500 1.000000
vt 0.437500 0.500000
vt 0.406250 1.000000
vt 0.406250 0.500000
vt 0.375000 1.000000
vt 0.375000 0.500000
vt 0.343750 1.000000
vt 0.343750 0.500000
vt 0.312500 1.000000
vt 0.312500 0.500000
vt 0.281250 1.000000
vt 0.281250 0.500000
vt 0.250000 1.000000
vt 0.250000 0.500000
vt 0.218750 1.000000
vt 0.218750 0.500000
vt 0.187500 1.000000
vt 0.187500 0.500000
vt 0.156250 1.000000
vt 0.156250 0.500000
vt 0.125000 1.000000
vt 0.125000 0.500000
vt 0.093750 1.000000
vt 0.093750 0.500000
vt 0.062500 1.000000
vt 0.062500 0.500000
vt 0.165923 0.453123
vt 0.158156 0.471731
vt 0.116663 0.449553
vt 0.080294 0.419706
vt 0.050447 0.383337
vt 0.028269 0.341844
vt 0.014612 0.296822
vt 0.010000 0.250000
vt 0.014612 0.203178
vt 0.028269 0.158156
vt 0.050447 0.116663
vt 0.080294 0.080294
vt 0.116663 0.050447
vt 0.158156 0.028269
vt 0.203178 0.014612
vt 0.250000 0.010000
vt 0.296822 0.014612
vt 0.341844 0.028269
vt 0.383337 0.050447
vt 0.419706 0.080294
vt 0.449553 0.116663
vt 0.471731 0.158156
vt 0.485388 0.203178
vt 0.490000 0.250000
vt 0.485388 0.296822
vt 0.471731 0.341844
vt 0.449553 0.383337
vt 0.419706 0.419706
vt 0.383337 0.449553
vt 0.341844 0.471731
vt 0.334077 0.453123
vt 0.372061 0.432820
vt 0.405354 0.405497
vt 0.432677 0.372204
vt 0.452980 0.334220
vt 0.465482 0.293005
vt 0.469703 0.250143
vt 0.465482 0.207281
vt 0.452980 0.166066
vt 0.432677 0.128082
vt 0.405354 0.094789
vt 0.372061 0.067466
vt 0.334077 0.047164
vt 0.292862 0.034661
vt 0.250000 0.030440
vt 0.207138 0.034661
vt 0.165923 0.047164
vt 0.127939 0.067466
vt 0.094646 0.094789
vt 0.067323 0.128082
vt 0.047021 0.166066
vt 0.034518 0.207281
vt 0.030297 0.250143
vt 0.034518 0.293005
vt 0.047021 0.334220
vt 0.067323 0.372204
vt 0.094646 0.405497
vt 0.127939 0.432820
vt 0.296822 0.485388
vt 0.250000 0.490000
vt 0.203178 0.485388
vt 0.207138 0.465625
vt 0.250000 0.469847
vt 0.292862 0.465625
vt 0.031250 1.000000
vt 0.031250 0.500000
vt 0.000000 1.000000
vt 0.000000 0.500000
vt 0.703178 0.485388
vt 0.750000 0.490000
vt 0.796822 0.485388
vt 0.841844 0.471731
vt 0.883337 0.449553
vt 0.919706 0.419706
vt 0.949553 0.383337
vt 0.971731 0.341844
vt 0.985388 0.296822
vt 0.990000 0.250000
vt 0.985388 0.203178
vt 0.971731 0.158156
vt 0.949553 0.116663
vt 0.919706 0.080294
vt 0.883337 0.050447
vt 0.841844 0.028269
vt 0.796822 0.014612
vt 0.750000 0.010000
vt 0.703178 0.014612
vt 0.658156 0.028269
vt 0.616663 0.050447
vt 0.580294 0.080294
vt 0.550447 0.116663
vt 0.528269 0.158156
vt 0.514612 0.203178
vt 0.510000 0.250000
vt 0.514612 0.296822
vt 0.528269 0.341844
vt 0.550447 0.383337
vt 0.580294 0.419706
vt 0.616663 0.449553
vt 0.658156 0.471731
vt 1.000000 0.963315
vt 1.000000 0.500000
vt 0.968750 0.500000
vt 0.968750 0.963315
vt 0.937500 0.500000
vt 0.937500 0.963315
vt 0.906250 0.500000
vt 0.906250 0.963315
vt 0.875000 0.500000
vt 0.875000 0.963315
vt 0.843750 0.500000
vt 0.843750 0.963315
vt 0.812500 0.500000
vt 0.812500 0.963315
vt 0.781250 0.500000
vt 0.781250 0.963315
vt 0.750000 0.500000
vt 0.750000 0.963315
vt 0.718750 0.500000
vt 0.718750 0.963315
vt 0.687500 0.500000
vt 0.687500 0.963315
vt 0.656250 0.500000
vt 0.656250 0.963315
vt 0.625000 0.500000
vt 0.625000 0.963315
vt 0.593750 0.500000
vt 0.593750 0.963315
vt 0.562500 0.500000
vt 0.562500 0.963315
vt 0.531250 0.500000
vt 0.531250 0.963315
vt 0.500000 0.500000
vt 0.500000 0.963315
vt 0.468750 0.500000
vt 0.468750 0.963315
vt 0.437500 0.500000
vt 0.437500 0.963315
vt 0.406250 0.500000
vt 0.406250 0.963315
vt 0.375000 0.500000
vt 0.375000 0.963315
vt 0.343750 0.500000
vt 0.343750 0.963315
vt 0.312500 0.500000
vt 0.312500 0.963315
vt 0.281250 0.500000
vt 0.281250 0.963315
vt 0.250000 0.500000
vt 0.250000 0.963315
vt 0.218750 0.500000
vt 0.218750 0.963315
vt 0.187500 0.500000
vt 0.187500 0.963315
vt 0.156250 0.500000
vt 0.156250 0.963315
vt 0.125000 0.500000
vt 0.125000 0.963315
vt 0.093750 0.500000
vt 0.093750 0.963315
vt 0.062500 0.500000
vt 0.062500 0.963315
vt 0.031250 0.500000
vt 0.031250 0.963315
vt 0.000000 0.500000
vt 0.000000 0.963315
vt 0.550447 0.116663
vt 0.580294 0.080294
vt 0.616663 0.050447
vt 0.658156 0.028269
vt 0.703178 0.014612
vt 0.750000 0.010000
vt 0.796822 0.014612
vt 0.841844 0.028269
vt 0.883337 0.050447
vt 0.919706 0.080294
vt 0.949553 0.116663
vt 0.971731 0.158156
vt 0.985388 0.203178
vt 0.990000 0.250000
vt 0.985388 0.296822
vt 0.971731 0.341844
vt 0.949553 0.383337
vt 0.919706 0.419706
vt 0.883337 0.449553
vt 0.841844 0.471731
vt 0.796822 0.485388
vt 0.750000 0.490000
vt 0.703178 0.485388
vt 0.658156 0.471731
vt 0.616663 0.449553
vt 0.580294 0.419706
vt 0.550447 0.383337
vt 0.528269 0.341844
vt 0.514612 0.296822
vt 0.510000 0.250000
vt 0.514612 0.203178
vt 0.528269 0.158156
vn 0.0980 0.0000 -0.9952
vn 0.2903 0.0000 -0.9569
vn 0.4714 0.0000 -0.8819
vn 0.6344 0.0000 -0.7730
vn 0.7730 0.0000 -0.6344
vn 0.8819 0.0000 -0.4714
vn 0.9569 0.0000 -0.2903
vn 0.9952 0.0000 -0.0980
vn 0.9952 0.0000 0.0980
vn 0.9569 0.0000 0.2903
vn 0.8819 0.0000 0.4714
vn 0.7730 0.0000 0.6344
vn 0.6344 0.0000 0.7730
vn 0.4714 0.0000 0.8819
vn 0.2903 0.0000 0.9569
vn 0.0980 0.0000 0.9952
vn -0.0980 0.0000 0.9952
vn -0.2903 0.0000 0.9569
vn -0.4714 0.0000 0.8819
vn -0.6344 0.0000 0.7730
vn -0.7730 0.0000 0.6344
vn -0.8819 0.0000 0.4714
vn -0.9569 0.0000 0.2903
vn -0.9952 0.0000 0.0980
vn -0.9952 0.0000 -0.0980
vn -0.9569 0.0000 -0.2903
vn -0.8819 0.0000 -0.4714
vn -0.7730 0.0000 -0.6344
vn -0.6344 0.0000 -0.7730
vn -0.4714 0.0000 -0.8819
vn 0.0000 1.0000 -0.0000
vn -0.2903 0.0000 -0.9569
vn -0.0980 0.0000 -0.9952
vn 0.0000 -1.0000 0.0000
usemtl None
s off
f 1/1/1 3/2/1 6/3/1 4/4/1
f 4/4/2 6/3/2 9/5/2 7/6/2
f 7/6/3 9/5/3 12/7/3 10/8/3
f 10/8/4 12/7/4 15/9/4 13/10/4
f 13/10/5 15/9/5 18/11/5 16/12/5
f 16/12/6 18/11/6 21/13/6 19/14/6
f 19/14/7 21/13/7 24/15/7 22/16/7
f 22/16/8 24/15/8 27/17/8 25/18/8
f 25/18/9 27/17/9 30/19/9 28/20/9
f 28/20/10 30/19/10 33/21/10 32/22/10
f 32/22/11 33/21/11 36/23/11 34/24/11
f 34/24/12 36/23/12 39/25/12 37/26/12
f 37/26/13 39/25/13 42/27/13 40/28/13
f 40/28/14 42/27/14 45/29/14 43/30/14
f 43/30/15 45/29/15 48/31/15 47/32/15
f 47/32/16 48/31/16 51/33/16 49/34/16
f 49/34/17 51/33/17 54/35/17 52/36/17
f 52/36/18 54/35/18 57/37/18 55/38/18
f 55/38/19 57/37/19 60/39/19 58/40/19
f 58/40/20 60/39/20 63/41/20 61/42/20
f 61/42/21 63/41/21 66/43/21 64/44/21
f 64/44/22 66/43/22 69/45/22 67/46/22
f 67/46/23 69/45/23 72/47/23 70/48/23
f 70/48/24 72/47/24 75/49/24 73/50/24
f 73/50/25 75/49/25 78/51/25 76/52/25
f 76/52/26 78/51/26 81/53/26 79/54/26
f 79/54/27 81/53/27 84/55/27 82/56/27
f 82/56/28 84/55/28 87/57/28 85/58/28
f 85/58/29 87/57/29 90/59/29 88/60/29
f 88/60/30 90/59/30 93/61/30 91/62/30
f 104/63/31 93/64/31 90/65/31 87/66/31 84/67/31 81/68/31 78/69/31 75/70/31 72/71/31 69/72/31 66/73/31 63/74/31 60/75/31 57/76/31 54/77/31 51/78/31 48/79/31 45/80/31 42/81/31 39/82/31 36/83/31 33/84/31 30/85/31 27/86/31 24/87/31 21/88/31 18/89/31 15/90/31 12/91/31 9/92/31 128/93/31 120/94/31 122/95/31 121/96/31 126/97/31 125/98/31 123/99/31 124/100/31 97/101/31 99/102/31 100/103/31 102/104/31 108/105/31 109/106/31 114/107/31 118/108/31 119/109/31 115/110/31 116/111/31 113/112/31 117/113/31 112/114/31 110/115/31 111/116/31 127/117/31 103/118/31 98/119/31 101/120/31
f 128/93/31 9/92/31 6/121/31 3/122/31 96/123/31 93/64/31 104/63/31 105/124/31 107/125/31 106/126/31
f 91/62/32 93/61/32 96/127/32 94/128/32
f 94/128/33 96/127/33 3/129/33 1/130/33
f 94/131/34 1/132/34 4/133/34 7/134/34 10/135/34 13/136/34 16/137/34 19/138/34 22/139/34 25/140/34 28/141/34 32/142/34 34/143/34 37/144/34 40/145/34 43/146/34 47/147/34 49/148/34 52/149/34 55/150/34 58/151/34 61/152/34 64/153/34 67/154/34 70/155/34 73/156/34 76/157/34 79/158/34 82/159/34 85/160/34 88/161/34 91/162/34
f 107/163/17 2/164/17 5/165/17 106/166/17
f 106/166/18 5/165/18 8/167/18 128/168/18
f 128/168/19 8/167/19 11/169/19 120/170/19
f 120/170/20 11/169/20 14/171/20 122/172/20
f 14/171/21 17/173/21 121/174/21 122/172/21
f 17/173/22 20/175/22 126/176/22 121/174/22
f 20/175/23 23/177/23 125/178/23 126/176/23
f 23/177/24 26/179/24 123/180/24 125/178/24
f 26/179/25 29/181/25 124/182/25 123/180/25
f 29/181/26 31/183/26 97/184/26 124/182/26
f 31/183/27 35/185/27 99/186/27 97/184/27
f 35/185/28 38/187/28 100/188/28 99/186/28
f 38/187/29 41/189/29 102/190/29 100/188/29
f 41/189/30 44/191/30 108/192/30 102/190/30
f 44/191/32 46/193/32 109/194/32 108/192/32
f 46/193/33 50/195/33 114/196/33 109/194/33
f 50/195/1 53/197/1 118/198/1 114/196/1
f 53/197/2 56/199/2 119/200/2 118/198/2
f 56/199/3 59/201/3 115/202/3 119/200/3
f 59/201/4 62/203/4 116/204/4 115/202/4
f 116/204/5 62/203/5 65/205/5 113/206/5
f 113/206/6 65/205/6 68/207/6 117/208/6
f 117/208/7 68/207/7 71/209/7 112/210/7
f 112/210/8 71/209/8 74/211/8 110/212/8
f 110/212/9 74/211/9 77/213/9 111/214/9
f 111/214/10 77/213/10 80/215/10 127/216/10
f 127/216/11 80/215/11 83/217/11 103/218/11
f 103/218/12 83/217/12 86/219/12 98/220/12
f 98/220/13 86/219/13 89/221/13 101/222/13
f 101/222/14 89/221/14 92/223/14 104/224/14
f 104/224/15 92/223/15 95/225/15 105/226/15
f 105/226/16 95/225/16 2/227/16 107/228/16
f 65/229/31 62/230/31 59/231/31 56/232/31 53/233/31 50/234/31 46/235/31 44/236/31 41/237/31 38/238/31 35/239/31 31/240/31 29/241/31 26/242/31 23/243/31 20/244/31 17/245/31 14/246/31 11/247/31 8/248/31 5/249/31 2/250/31 95/251/31 92/252/31 89/253/31 86/254/31 83/255/31 80/256/31 77/257/31 74/258/31 71/259/31 68/260/31
